HIERARCHY
ROOT Character1_Hips
{
  OFFSET 56.7641 93.4158 69.2284
  CHANNELS 6 Xposition Yposition Zposition Zrotation Xrotation Yrotation
  JOINT Character1_Spine
  {
    OFFSET 0 8.754 -1.339
    CHANNELS 3 Zrotation Xrotation Yrotation
    JOINT Character1_Spine1
    {
      OFFSET 0 10.855 -0.645
      CHANNELS 3 Zrotation Xrotation Yrotation
      JOINT Character1_LeftShoulder
      {
        OFFSET 1.467 27.745 1.178
        CHANNELS 3 Zrotation Xrotation Yrotation
        JOINT Character1_LeftArm
        {
          OFFSET 18.486 -1.858 0.275
          CHANNELS 3 Zrotation Xrotation Yrotation
          JOINT Character1_LeftForeArm
          {
            OFFSET 31.798 2.36 2.921
            CHANNELS 3 Zrotation Xrotation Yrotation
            JOINT Character1_LeftHand
            {
              OFFSET 29.001 1.642 2.112
              CHANNELS 3 Zrotation Xrotation Yrotation
              End Site
              {
                OFFSET 7.3734 -1.0302 1.64982
              }
            }
            JOINT ForeArmBoxL
            {
              OFFSET 14.9879 1.12959 0.0233554
              CHANNELS 3 Zrotation Xrotation Yrotation
              End Site
              {
                OFFSET 0 0 0
              }
            }
          }
          JOINT ArmBoxL
          {
            OFFSET 15.8286 1.72374 1.18509
            CHANNELS 3 Zrotation Xrotation Yrotation
            End Site
            {
              OFFSET 0 0 0
            }
          }
        }
        JOINT ShoulderBoxL
        {
          OFFSET 8.34438 1.0846 -0.108247
          CHANNELS 3 Zrotation Xrotation Yrotation
          End Site
          {
            OFFSET 0 0 0
          }
        }
      }
      JOINT Character1_RightShoulder
      {
        OFFSET -1.467 27.745 1.178
        CHANNELS 3 Zrotation Xrotation Yrotation
        JOINT Character1_RightArm
        {
          OFFSET -18.486 -1.858 0.275
          CHANNELS 3 Zrotation Xrotation Yrotation
          JOINT Character1_RightForeArm
          {
            OFFSET -31.798 2.35964 2.92082
            CHANNELS 3 Zrotation Xrotation Yrotation
            JOINT Character1_RightHand
            {
              OFFSET -29.0007 1.64167 2.112
              CHANNELS 3 Zrotation Xrotation Yrotation
              End Site
              {
                OFFSET -7.37366 -1.0295 1.65001
              }
            }
            JOINT ForeArmBoxR
            {
              OFFSET -14.9879 1.12995 0.0235372
              CHANNELS 3 Zrotation Xrotation Yrotation
              End Site
              {
                OFFSET 0 0 0
              }
            }
          }
          JOINT ArmBoxR
          {
            OFFSET -15.8286 1.72374 1.18509
            CHANNELS 3 Zrotation Xrotation Yrotation
            End Site
            {
              OFFSET 0 0 0
            }
          }
        }
        JOINT ShoulderBoxR
        {
          OFFSET -8.34438 1.0846 -0.108247
          CHANNELS 3 Zrotation Xrotation Yrotation
          End Site
          {
            OFFSET 0 0 0
          }
        }
      }
      JOINT Character1_Neck
      {
        OFFSET 0 30.836 0.626
        CHANNELS 3 Zrotation Xrotation Yrotation
        JOINT Character1_Head
        {
          OFFSET 0 8.074 3.498
          CHANNELS 3 Zrotation Xrotation Yrotation
          End Site
          {
            OFFSET 0 8.75051 -0.3664
          }
        }
        JOINT NeckBox
        {
          OFFSET 0 4.52749 1.86245
          CHANNELS 3 Zrotation Xrotation Yrotation
          End Site
          {
            OFFSET 0 0 0
          }
        }
      }
      JOINT TorsoBox
      {
        OFFSET 0 12.7155 1.00402
        CHANNELS 3 Zrotation Xrotation Yrotation
        End Site
        {
          OFFSET 0 0 0
        }
      }
    }
    JOINT SpineBox
    {
      OFFSET 0 5.28258 0.326123
      CHANNELS 3 Zrotation Xrotation Yrotation
      End Site
      {
        OFFSET 0 0 0
      }
    }
  }
  JOINT Character1_RightUpLeg
  {
    OFFSET -9.035 -4.63425 1.845
    CHANNELS 3 Zrotation Xrotation Yrotation
    JOINT Character1_RightLeg
    {
      OFFSET -0.919521 -40.345 1.155
      CHANNELS 3 Zrotation Xrotation Yrotation
      JOINT Character1_RightFoot
      {
        OFFSET 1.95452 -45.2655 -4.18888
        CHANNELS 3 Zrotation Xrotation Yrotation
        JOINT Character1_RightToeBase
        {
          OFFSET 1.87056 -6.69517 14.7145
          CHANNELS 3 Zrotation Xrotation Yrotation
          End Site
          {
            OFFSET 0 0 0
          }
        }
        JOINT TalusBoxR
        {
          OFFSET -0.257548 -3.72327 1.77314
          CHANNELS 3 Zrotation Xrotation Yrotation
          End Site
          {
            OFFSET 0 0 0
          }
        }
        JOINT FootPinkyBoxR
        {
          OFFSET -4.44001 -5.06132 12.2866
          CHANNELS 3 Zrotation Xrotation Yrotation
          End Site
          {
            OFFSET 0 0 0
          }
        }
        JOINT FootThumbBoxR
        {
          OFFSET 0.350101 -5.07916 13.5666
          CHANNELS 3 Zrotation Xrotation Yrotation
          End Site
          {
            OFFSET 0 0 0
          }
        }
      }
      JOINT TibiaBoxR
      {
        OFFSET 0.679521 -22.8458 -3.405
        CHANNELS 3 Zrotation Xrotation Yrotation
        End Site
        {
          OFFSET 0 0 0
        }
      }
    }
    JOINT FemurBoxR
    {
      OFFSET -0.557975 -20.9557 -1.11465
      CHANNELS 3 Zrotation Xrotation Yrotation
      End Site
      {
        OFFSET 0 0 0
      }
    }
  }
  JOINT Character1_LeftUpLeg
  {
    OFFSET 9.035 -4.63425 1.845
    CHANNELS 3 Zrotation Xrotation Yrotation
    JOINT Character1_LeftLeg
    {
      OFFSET 0.919521 -40.345 1.155
      CHANNELS 3 Zrotation Xrotation Yrotation
      JOINT Character1_LeftFoot
      {
        OFFSET -1.95452 -45.2655 -4.18888
        CHANNELS 3 Zrotation Xrotation Yrotation
        JOINT Character1_LeftToeBase
        {
          OFFSET -1.87056 -6.69517 14.7145
          CHANNELS 3 Zrotation Xrotation Yrotation
          End Site
          {
            OFFSET 0 0 0
          }
        }
        JOINT FootThumbBoxL
        {
          OFFSET -0.350101 -5.07916 13.5666
          CHANNELS 3 Zrotation Xrotation Yrotation
          End Site
          {
            OFFSET 0 0 0
          }
        }
        JOINT FootPinkyBoxL
        {
          OFFSET 4.44001 -5.06132 12.2866
          CHANNELS 3 Zrotation Xrotation Yrotation
          End Site
          {
            OFFSET 0 0 0
          }
        }
        JOINT TalusBoxL
        {
          OFFSET 0.257548 -3.72327 1.77314
          CHANNELS 3 Zrotation Xrotation Yrotation
          End Site
          {
            OFFSET 0 0 0
          }
        }
      }
      JOINT TibiaBoxL
      {
        OFFSET -0.679521 -22.8458 -3.405
        CHANNELS 3 Zrotation Xrotation Yrotation
        End Site
        {
          OFFSET 0 0 0
        }
      }
    }
    JOINT FemurBoxL
    {
      OFFSET 0.557975 -20.9557 -1.11465
      CHANNELS 3 Zrotation Xrotation Yrotation
      End Site
      {
        OFFSET 0 0 0
      }
    }
  }
  JOINT PelvisBox
  {
    OFFSET 0 0.0930822 -0.0838296
    CHANNELS 3 Zrotation Xrotation Yrotation
    End Site
    {
      OFFSET 0 0 0
    }
  }
}
MOTION
Frames:	8
Frame Time:	0.00833333
55.7271 96.2347 -102.343 -0.287286 0.237055 -0.256743 -4.1737e-17 -4.96962e-17 4.96962e-17 0.262715 -0.419942 0.124544 -2.18166e-07 1.88098e-07 1.7046e-06 -53.1678 6.44555 -19.6125 5.0531 3.14628 -146.596 0.233984 2.28327 -0.701698 -13.2576 -68.9783 -17.331 -6.92027 -72.5829 -11.2678 0.27423 -0.0473218 3.14463 -2.18166e-07 1.88098e-07 1.7046e-06 93.8427 -19.2303 -31.385 1.13825 0.814753 59.4304 -0.175053 2.76365 -0.212915 -166.742 68.9783 162.669 -173.08 72.5829 168.732 179.726 0.0473218 -176.855 2.37804e-18 4.96962e-17 2.48481e-17 2.32951e-18 2.48481e-17 4.96962e-17 0.297247 12.971 0.0571559 1.78253e-18 0.528321 2.21105e-17 0.423066 -0.542079 0.102154 -0.850425 8.21915 0.401417 0.00664612 0.0649323 0.212858 1.2033 -8.55835 -0.0262625 0.0825941 0.391675 -0.034687 -178.531 -1.41374 -167.997 -179.276 -0.600381 -160.082 179.447 -1.12556 -169.995 -178 -5 -180 179.002 0.985149 179.879 4.97161 6.22453 -0.164887 -0.0181583 3.24887 -0.397653 -4.62056 -9.39781 0.110262 6.98246e-05 0.293917 0.0270705 0.553385 1.12556 10.0051 -0.724387 0.600381 19.9179 -1.46875 1.41374 12.0028 -2 5 -9.89405e-17 0.99792 -0.985149 -0.120973 -4.05682e-17 0 3.81818e-17 
55.7388 96.2401 -102.34 -0.162837 0.190975 -0.245664 5.53258e-18 0 -9.93923e-17 0.0414582 -0.205987 0.254419 -2.18166e-07 1.88098e-07 1.7046e-06 -53.1254 6.48195 -20.1179 5.08504 3.08485 -146.64 0.234442 2.28545 -0.705089 -13.2576 -68.9783 -17.331 -6.92027 -72.5829 -11.2678 0.27423 -0.0473218 3.14463 -2.18166e-07 1.88098e-07 1.7046e-06 94.0515 -19.0138 -31.3684 1.19636 0.737021 59.4807 0.218411 2.606 -1.247 -166.742 68.9783 162.669 -173.08 72.5829 168.732 179.726 0.0473218 -176.855 -2.31252e-17 3.10601e-18 -1.55301e-18 -2.31252e-17 6.21202e-18 -3.10601e-18 0.373045 12.8954 -0.0327806 1.4991e-17 0.528321 -2.76382e-18 0.251347 -0.427776 0.199768 -0.993679 8.21541 0.312033 0.0109309 0.226951 0.213412 1.21303 -8.6411 0.0242792 0.0711787 0.339278 -0.0299345 -178.531 -1.41374 -167.997 -179.276 -0.600381 -160.082 179.447 -1.12556 -169.995 -178 -5 -180 179.002 0.985149 179.879 4.82525 6.37327 -0.181293 -0.0284261 3.06019 -0.39457 -4.62289 -9.47862 0.0915099 3.21492e-05 0.613701 0.056525 0.553385 1.12556 10.0051 -0.724387 0.600381 19.9179 -1.46875 1.41374 12.0028 -2 5 -9.89405e-17 0.99792 -0.985149 -0.120973 4.02699e-18 0 -3.81818e-17 
55.7348 96.2438 -102.337 -0.274556 0.171509 -0.191695 -1.24629e-16 -2.48481e-17 -0 0.125468 -0.175996 0.281356 -2.18166e-07 1.88098e-07 1.7046e-06 -53.0449 6.81917 -20.643 5.10413 3.03468 -146.532 0.249407 2.35963 -0.809101 -13.2576 -68.9783 -17.331 -6.92027 -72.5829 -11.2678 0.27423 -0.0473218 3.14463 -2.18166e-07 1.88098e-07 1.7046e-06 94.1191 -18.8695 -31.3249 1.08413 0.878727 59.261 0.610933 2.4321 -2.28314 -166.742 68.9783 162.669 -173.08 72.5829 168.732 179.726 0.0473218 -176.855 3.7715e-17 -7.76503e-19 1.2424e-17 3.77165e-17 -1.55301e-18 1.2424e-17 0.243824 13.0112 -0.0996023 3.32392e-17 0.528321 1.10553e-17 0.351979 -0.333696 0.222135 -0.825454 8.20205 0.391629 0.0148786 0.346193 0.211777 1.12757 -8.67039 -0.177085 0.0393552 0.193294 -0.0168271 -178.531 -1.41374 -167.997 -179.276 -0.600381 -160.082 179.447 -1.12556 -169.995 -178 -5 -180 179.002 0.985149 179.879 4.98118 6.44681 -0.215555 -0.0349104 2.94143 -0.39197 -4.60235 -9.4337 0.149895 0.000609733 -0.124406 -0.0114908 0.553385 1.12556 10.0051 -0.724387 0.600381 19.9179 -1.46875 1.41374 12.0028 -2 5 -0 0.99792 -0.985149 -0.120973 -8.9414e-17 -2.73495e-17 -0 
55.7657 96.2131 -102.326 -0.0361803 0.0671865 -0.0339604 -1.20722e-18 0 -0 -0.0551665 -0.0876891 0.102492 -2.18166e-07 1.88098e-07 1.7046e-06 -52.9646 6.91401 -20.738 5.12594 2.97739 -146.386 0.212161 2.19186 -0.532866 -13.2576 -68.9783 -17.331 -6.92027 -72.5829 -11.2678 0.27423 -0.0473218 3.14463 -2.18166e-07 1.88098e-07 1.7046e-06 94.0242 -19.6198 -31.2617 0.798592 1.2629 58.9257 0.191838 2.59958 -1.17267 -166.742 68.9783 162.669 -173.08 72.5829 168.732 179.726 0.0473218 -176.855 -2.5203e-17 -3.10601e-18 -0 -2.5203e-17 -3.10601e-18 1.2424e-17 0.126536 13.1223 -0.0646121 -1.01432e-17 0.528321 -1.10553e-17 0.0524359 -0.132824 0.0809819 -1.09373 8.29374 0.226567 0.0182065 0.480484 0.209217 1.10781 -8.84027 -0.153627 0.0739667 0.323871 -0.0295187 -178.531 -1.41374 -167.997 -179.276 -0.600381 -160.082 179.447 -1.12556 -169.995 -178 -5 -180 179.002 0.985149 179.879 4.72904 6.58057 -0.454042 -0.0369812 2.8627 -0.389703 -4.58333 -9.45403 0.211566 0.000118888 -0.475253 -0.0438949 0.553385 1.12556 10.0051 -0.724387 0.600381 19.9179 -1.46875 1.41374 12.0028 -2 5 -0 0.99792 -0.985149 -0.120973 -5.70956e-18 0 -4.77273e-18 
55.7715 96.181 -102.318 0 0 -3.53516e-07 0 0 -0 0 0 -1.33402e-08 -2.18166e-07 1.88098e-07 1.7046e-06 -53.1196 6.79139 -20.7099 5.14367 2.92741 -146.268 0.129006 1.79276 0.0994924 -13.2576 -68.9783 -17.331 -6.92027 -72.5829 -11.2678 0.27423 -0.0473218 3.14463 -2.18166e-07 1.88098e-07 1.7046e-06 93.9745 -19.8845 -31.2776 0.707337 1.38936 58.8512 -0.19694 2.75395 -0.151179 -166.742 68.9783 162.669 -173.08 72.5829 168.732 179.726 0.0473218 -176.855 0 0 -0 0 0 -0 -4.75788e-07 13.3058 2.12477e-07 0 0.528321 -0 -0 0 7.37672e-07 -1.12952 8.35459 0.225734 0.0194965 0.509877 0.206097 1.05852 -8.87106 -0.26192 -7.95209e-16 6.95746e-16 -7.47052e-07 -178.531 -1.41374 -167.997 -179.276 -0.600381 -160.082 179.447 -1.12556 -169.995 -178 -5 180 179.002 0.985149 179.879 4.68766 6.59134 -0.578661 -0.0329275 2.92466 -0.388346 -4.58756 -9.56285 0.193324 0.000218502 0 -0 0.553385 1.12556 10.0051 -0.724387 0.600381 19.9179 -1.46875 1.41374 12.0028 -2 5 -0 0.99792 -0.985149 -0.120973 0 0 -0 
55.7591 96.179 -102.332 -0.133197 -0.00756304 -0.0276511 -3.52558e-17 1.55301e-18 -0 0.223874 0.0222211 0.0129623 -2.18166e-07 1.88098e-07 1.7046e-06 -53.3585 6.61848 -20.9055 5.12863 2.97052 -146.408 0.117142 1.72772 0.186729 -13.2576 -68.9783 -17.331 -6.92027 -72.5829 -11.2678 0.27423 -0.0473218 3.14463 -2.18166e-07 1.88098e-07 1.7046e-06 93.8779 -19.7729 -31.3712 0.627731 1.49319 58.6352 -0.169772 2.73675 -0.220759 -166.742 68.9783 162.669 -173.08 72.5829 168.732 179.726 0.0473218 -176.855 1.70254e-17 3.10601e-18 -0 1.70247e-17 0 -0 -0.127955 13.4409 -0.0158547 2.22828e-17 0.528321 -2.76382e-18 0.13107 0.0264319 0.00976208 -0.950349 8.31398 0.483284 0.0182476 0.480657 0.202784 0.94875 -8.82218 -0.546841 -0.0422642 -0.186432 0.0167173 -178.531 -1.41374 -167.997 -179.276 -0.600381 -160.082 179.447 -1.12556 -169.995 -178 -5 -180 179.002 0.985149 179.879 4.83636 6.47141 -0.466636 -0.0241455 3.07774 -0.388927 -4.62245 -9.61471 0.0837639 -0.000420296 0.430396 0.0396135 0.553385 1.12556 10.0051 -0.724387 0.600381 19.9179 -1.46875 1.41374 12.0028 -2 5 9.89405e-17 0.99792 -0.985149 -0.120973 -5.53285e-17 0 -0 
55.7674 96.1646 -102.344 -0.12718 0.00526145 0.0995612 4.78853e-17 1.55301e-18 2.48481e-17 0.260793 0.0879077 -0.0666151 -2.18166e-07 1.88098e-07 1.7046e-06 -53.4073 6.55822 -21.2203 5.10668 3.02509 -146.52 0.14998 1.88659 -0.071755 -13.2576 -68.9783 -17.331 -6.92027 -72.5829 -11.2678 0.27423 -0.0473218 3.14463 -2.18166e-07 1.88098e-07 1.7046e-06 93.7633 -20.0173 -31.5007 0.514176 1.64796 58.4137 -0.189579 2.7377 -0.167168 -166.742 68.9783 162.669 -173.08 72.5829 168.732 179.726 0.0473218 -176.855 -1.735e-18 1.2424e-17 -0 2.31131e-17 1.2424e-17 6.21202e-18 -0.17849 13.352 -0.0333262 3.26138e-17 0.528321 -0 0.0951096 0.0391631 -0.0541909 -0.925797 8.37921 0.57299 0.0117887 0.275942 0.198868 0.865233 -8.83566 -0.719353 0.0355722 0.174603 -0.0152322 -178.531 -1.41374 -167.997 -179.276 -0.600381 -160.082 179.447 -1.12556 -169.995 -178 -5 -180 179.002 0.985149 179.879 4.82776 6.17345 -0.490265 0.00299406 3.52508 -0.387496 -4.65161 -9.81328 -0.0104885 -0.00108293 0.599624 0.0552535 0.553385 1.12556 10.0051 -0.724387 0.600381 19.9179 -1.46875 1.41374 12.0028 -2 5 -4.94702e-17 0.99792 -0.985149 -0.120973 2.52363e-17 1.70935e-18 3.81818e-17 
55.7547 96.148 -102.399 -0.38449 0.065995 0.262184 -9.94894e-17 1.2424e-17 4.96962e-17 0.528183 0.156389 -0.242216 -2.18166e-07 1.88098e-07 1.7046e-06 -53.3715 6.70952 -21.4081 5.15414 2.91664 -146.414 0.124527 1.76596 0.130079 -13.2576 -68.9783 -17.331 -6.92027 -72.5829 -11.2678 0.27423 -0.0473218 3.14463 -2.18166e-07 1.88098e-07 1.7046e-06 93.7925 -20.0353 -31.4971 0.574022 1.565 58.5049 -0.262764 2.76923 0.0235734 -166.742 68.9783 162.669 -173.08 72.5829 168.732 179.726 0.0473218 -176.855 1.18902e-18 9.93923e-17 -0 1.20115e-18 9.93923e-17 -0 -0.213507 13.3708 0.00552972 -1.07672e-17 0.528321 2.76382e-18 0.374585 0.0686284 -0.190232 -0.587734 8.50314 0.736637 0.000769698 -0.12318 0.192876 0.764844 -8.81003 -0.921065 0.144596 0.678128 -0.0606145 -178.531 -1.41374 -167.997 -179.276 -0.600381 -160.082 179.447 -1.12556 -169.995 -178 -5 180 179.002 0.985149 179.879 5.13817 5.70989 -0.53511 0.0391633 4.17038 -0.385202 -4.7021 -10.1244 -0.170919 -0.00203613 0.843619 0.0777524 0.553385 1.12556 10.0051 -0.724387 0.600381 19.9179 -1.46875 1.41374 12.0028 -2 5 4.94702e-17 0.99792 -0.985149 -0.120973 -6.92418e-17 0 -0 
